<?xml version="1.0" encoding="UTF-8" standalone="no"?>
<!DOCTYPE svg PUBLIC "-//W3C//DTD SVG 1.1//EN" "http://www.w3.org/Graphics/SVG/1.1/DTD/svg11.dtd">
<svg width="100%" height="100%" viewBox="0 0 352 339" version="1.1" xmlns="http://www.w3.org/2000/svg" xmlns:xlink="http://www.w3.org/1999/xlink" xml:space="preserve" xmlns:serif="http://www.serif.com/" style="fill-rule:evenodd;clip-rule:evenodd;stroke-linecap:round;stroke-linejoin:round;stroke-miterlimit:1.5;">
    <g transform="matrix(1,0,0,1,-920.652605,-645.20476)">
        <g id="FensteKREUZ" transform="matrix(1,0,0,1,-715,-143)">
            <path d="M1886,819C2074.943,994.131 1980.574,1175.199 1739,1114C1497.426,1052.801 1737.723,681.562 1886,819ZM1811.992,931.3L1706.705,893.261C1744.846,927.136 1787.474,959.891 1787.474,959.891L1711.855,1047.057C1701.771,1076.752 1813.678,981.469 1813.678,981.469C1823.332,966.974 1901.517,1059.512 1901.517,1059.512C1931.455,1037.748 1844.334,949.375 1844.334,949.375C1845.024,943.988 1892.388,878.983 1892.388,878.983C1858.485,869.631 1811.992,931.3 1811.992,931.3Z" style="fill:white;stroke:black;stroke-opacity:0;stroke-width:1px;"/>
        </g>
        <g id="Text">
        </g>
    </g>
</svg>
