<?xml version="1.0" encoding="UTF-8" standalone="no"?>
<!DOCTYPE svg PUBLIC "-//W3C//DTD SVG 1.1//EN" "http://www.w3.org/Graphics/SVG/1.1/DTD/svg11.dtd">
<svg width="100%" height="100%" viewBox="0 0 352 339" version="1.1" xmlns="http://www.w3.org/2000/svg" xmlns:xlink="http://www.w3.org/1999/xlink" xml:space="preserve" xmlns:serif="http://www.serif.com/" style="fill-rule:evenodd;clip-rule:evenodd;stroke-linecap:round;stroke-linejoin:round;stroke-miterlimit:1.5;">
    <g transform="matrix(1,0,0,1,-1635.652605,-788.20476)">
        <path d="M5469,385C5469,385 2464.622,447.964 2291,392C2117.378,336.036 1388.03,376.584 1349,475C1309.97,573.416 1299.19,988.538 1342,1332C1384.81,1675.462 1344.145,7764.016 1326,8566C1307.855,9367.984 1253,11231 1253,11231C1253,11231 1207.253,11875.662 1587,11879C1966.747,11882.338 3985,11800 3985,11800C3985,11800 7333.034,11795.21 7828,11809C8322.966,11822.79 8768.883,11822.344 9352,11831C9935.117,11839.656 10782.301,11879.724 10975,11847C11167.699,11814.276 11263.724,11650.568 11246,11134C11228.276,10617.432 11232,10369 11232,10369C11232,10369 11198.069,5751.542 11210,5349C11221.931,4946.458 11212.967,1157.532 11237,894C11261.033,630.468 11242.421,351.416 10651,352C10059.579,352.584 7929.492,450.496 7331,377C6732.508,303.504 5469,385 5469,385Z" style="fill:rgb(223,102,102);"/>
        <path d="M1542,1381C1542,1381 5218.218,1482.577 10807,1313C11236.987,1299.953 11066.05,510.335 10969,485C10871.95,459.665 10440,538 10440,538C10440,538 4883.707,647.614 3692,590C3003.399,556.709 2029,585 2029,585C2029,585 1480.37,452.384 1483,730C1485.63,1007.616 1542,1381 1542,1381Z" style="fill:rgb(245,175,175);stroke:black;stroke-width:1px;"/>
        <path d="M1886,819C2074.943,994.131 1980.574,1175.199 1739,1114C1497.426,1052.801 1737.723,681.562 1886,819ZM1811.992,931.3L1706.705,893.261C1744.846,927.136 1787.474,959.891 1787.474,959.891L1711.855,1047.057C1701.771,1076.752 1813.678,981.469 1813.678,981.469C1823.332,966.974 1901.517,1059.512 1901.517,1059.512C1931.455,1037.748 1844.334,949.375 1844.334,949.375C1845.024,943.988 1892.388,878.983 1892.388,878.983C1858.485,869.631 1811.992,931.3 1811.992,931.3Z" style="fill:rgb(87,18,18);stroke:black;stroke-width:1px;"/>
    </g>
</svg>
