<?xml version="1.0" encoding="UTF-8" standalone="no"?>
<!DOCTYPE svg PUBLIC "-//W3C//DTD SVG 1.1//EN" "http://www.w3.org/Graphics/SVG/1.1/DTD/svg11.dtd">
<svg width="100%" height="100%" viewBox="0 0 12500 3750" version="1.1" xmlns="http://www.w3.org/2000/svg" xmlns:xlink="http://www.w3.org/1999/xlink" xml:space="preserve" xmlns:serif="http://www.serif.com/" style="fill-rule:evenodd;clip-rule:evenodd;stroke-linecap:round;stroke-linejoin:round;stroke-miterlimit:1.5;">
    <g transform="matrix(1,0,0,0.3,0,0)">
        <path d="M10284,515.667C9042.126,500.458 7088.345,74.963 5049,157C3009.655,239.037 3136.084,363.094 2650,395.333C2152.653,428.32 689.69,-110.552 282,813.667C211.358,973.81 147.643,5590.768 183,6159.667C214.304,6663.36 147.185,12022.156 933,11957C1718.815,11891.844 2424.134,11558.853 3777,11529C5218.796,11497.185 5785.803,11884.271 6750,11890.333C7901.074,11897.571 8652.198,12049.544 9747,12058C10841.802,12066.456 11347.208,12269.522 11830,11889.667C12441.928,11408.209 12290.527,7405.112 12316,6997.333C12341.483,6589.383 12318.355,588.559 11809,470.333C11299.645,352.107 10612.899,519.695 10284,515.667Z" style="fill:rgb(224,182,182);stroke:black;stroke-width:0.74px;"/>
    </g>
</svg>
