<?xml version="1.0" encoding="UTF-8" standalone="no"?>
<!DOCTYPE svg PUBLIC "-//W3C//DTD SVG 1.1//EN" "http://www.w3.org/Graphics/SVG/1.1/DTD/svg11.dtd">
<svg width="100%" height="100%" viewBox="0 0 265 220" version="1.1" xmlns="http://www.w3.org/2000/svg" xmlns:xlink="http://www.w3.org/1999/xlink" xml:space="preserve" xmlns:serif="http://www.serif.com/" style="fill-rule:evenodd;clip-rule:evenodd;stroke-linejoin:round;stroke-miterlimit:2;">
    <g transform="matrix(1,0,0,1,-174.09261,-90)">
        <g transform="matrix(1,0,0,1,115.09261,5)">
            <path d="M299.77,108C312.822,108 323.403,118.581 323.404,131.634C323.405,179.115 323.407,281.593 323.407,281.593C323.407,294.512 312.918,305 300,305L82.407,305C69.488,305 59,294.512 59,281.593L59,108.407C59,95.488 69.488,85 82.407,85L136.023,85C139.37,85 142.605,86.198 145.144,88.378C150.217,92.734 158.989,100.266 164.062,104.622C166.601,106.802 169.836,108 173.182,108C192.712,108 262.604,108 299.77,108Z" style="fill:rgb(72,72,72);"/>
        </g>
    </g>
</svg>
